<?xml version="1.0" standalone="no"?>
<!DOCTYPE svg PUBLIC "-//W3C//DTD SVG 20010904//EN"
 "http://www.w3.org/TR/2001/REC-SVG-20010904/DTD/svg10.dtd">
<svg version="1.0" xmlns="http://www.w3.org/2000/svg"
 width="300.000000pt" height="300.000000pt" viewBox="0 0 300.000000 300.000000"
 preserveAspectRatio="xMidYMid meet">
<metadata>
Created by potrace 1.14, written by Peter Selinger 2001-2017
</metadata>
<g transform="translate(0.000000,300.000000) scale(0.100000,-0.100000)"
fill="#000000" stroke="none">
<path d="M1409 2857 c-47 -29 -177 -104 -287 -167 -169 -96 -201 -119 -202
-138 0 -20 -3 -21 -20 -12 -20 10 -78 -20 -310 -159 -19 -11 -42 -24 -50 -28
-8 -4 -68 -38 -132 -76 l-118 -69 0 -344 c0 -301 2 -344 16 -352 14 -8 14 -10
0 -21 -14 -12 -16 -57 -16 -355 l0 -342 298 -172 c187 -108 301 -167 307 -161
15 15 23 11 27 -13 3 -21 27 -37 207 -140 18 -10 112 -64 208 -120 l174 -101
37 19 c20 11 39 21 42 25 3 3 32 20 65 39 104 58 116 65 288 165 141 82 168
101 164 117 -4 15 -2 18 11 13 29 -12 35 -10 161 63 67 40 126 72 132 72 5 0
9 4 9 9 0 5 6 11 13 13 7 2 79 41 159 87 l146 84 -1 344 c0 302 -2 345 -16
353 -14 8 -14 10 1 27 14 16 16 57 14 356 l-1 338 -240 139 c-340 197 -354
204 -371 189 -8 -6 -15 -8 -15 -3 -1 5 -2 15 -3 23 0 8 -14 22 -31 31 -16 10
-102 59 -190 110 -88 51 -173 101 -190 110 -16 10 -62 36 -101 59 -39 22 -77
41 -85 40 -8 0 -53 -24 -100 -52z m239 -71 c70 -40 143 -83 162 -93 19 -11 82
-48 140 -81 157 -90 162 -80 -145 -257 l-250 -144 -3 -300 c-2 -287 -3 -300
-22 -306 -10 -3 -27 -2 -37 3 -17 9 -18 31 -18 304 l1 293 -36 23 c-19 13 -44
28 -55 33 -11 5 -41 22 -66 37 -25 15 -115 67 -200 116 -126 72 -155 94 -155
111 0 21 58 59 275 180 20 11 68 39 106 62 122 71 160 92 168 93 5 0 66 -33
135 -74z m-98 -1245 c0 -7 8 -20 18 -27 16 -13 16 -15 0 -25 -10 -5 -18 -18
-18 -27 0 -25 -72 -22 -76 2 -1 10 -10 23 -20 31 -17 12 -16 13 3 19 14 4 20
14 18 24 -2 14 4 17 36 17 27 0 39 -4 39 -14z m-932 -207 c130 -75 242 -141
249 -146 10 -8 65 19 198 99 11 7 27 15 35 20 8 4 53 30 100 57 192 115 235
128 228 69 -3 -24 -22 -38 -143 -108 -77 -44 -158 -91 -180 -104 -22 -14 -42
-25 -45 -26 -3 0 -35 -18 -72 -40 l-68 -40 0 -297 0 -298 -23 -5 c-17 -5 -56
13 -148 66 -68 39 -140 80 -159 91 -178 102 -246 143 -251 151 -11 16 -7 621
4 635 5 6 16 12 24 12 7 0 120 -61 251 -136z m1116 84 c50 -29 100 -58 111
-65 11 -7 26 -15 34 -19 7 -4 70 -40 139 -80 l125 -72 51 28 c28 15 141 80
251 144 110 64 204 116 210 116 35 -1 36 -12 37 -330 l1 -314 -29 -23 c-16
-13 -32 -23 -35 -23 -4 0 -36 -17 -70 -38 -35 -21 -89 -52 -119 -69 -30 -17
-89 -50 -130 -75 -172 -101 -166 -98 -186 -84 -17 13 -18 34 -19 302 0 159 -3
294 -7 300 -4 6 -22 19 -40 28 -18 9 -49 26 -68 37 -19 12 -114 66 -210 122
-96 55 -176 102 -178 103 -12 7 -8 45 6 54 26 15 28 14 126 -42z"/>
</g>
</svg>
